<svg width="92" height="45" viewBox="0 0 92 45" fill="none" xmlns="http://www.w3.org/2000/svg">
<path d="M88.4664 26.3012H84.7453C83.4412 26.3012 82.3742 25.2342 82.3742 23.9301V19.9718C82.3742 19.6974 82.424 19.4349 82.5112 19.1895C82.4553 19.1768 82.3999 19.1628 82.3434 19.1514L69.049 16.4394C68.6047 16.3488 68.1775 16.1966 67.7769 15.9916V17.9373C67.7769 19.2041 66.7405 20.2406 65.4737 20.2406H63.4605C62.1937 20.2406 61.1573 19.2041 61.1573 17.9373V15.9241C61.1573 14.6573 62.1937 13.6211 63.4605 13.6211H64.8053L56.2717 6.27225C54.4286 4.68496 52.2299 3.56649 49.8597 3.01995C43.5388 1.56255 30.2669 -0.349386 15.8989 4.51344C12.6691 5.60653 9.90172 7.75752 8.05661 10.625L3.50878 17.6924C3.20648 18.1623 2.94812 18.6561 2.73515 19.1675L2.01172 24.9545V27.2034C2.01172 28.0398 2.12321 28.8724 2.34315 29.6793L2.93615 32.3904H88.4748V26.6607C88.4752 26.5399 88.4719 26.4203 88.4664 26.3012Z" fill="#FF4756"/>
<path d="M8.26512 26.9379V24.9902C8.26512 24.7131 8.28156 24.4362 8.31425 24.1612L8.85169 19.6423C8.96514 18.6891 9.25995 17.7644 9.75307 16.9557C9.75611 16.9507 9.75914 16.9459 9.76218 16.9409L14.31 9.51237C16.1551 6.49841 18.9225 4.23754 22.1523 3.08852C22.915 2.81712 23.6744 2.56716 24.4302 2.33472C21.6635 2.82373 18.8037 3.52965 15.8989 4.51287C12.6691 5.60596 9.90172 7.75695 8.05661 10.6244L3.50878 17.6918C3.20648 18.1617 2.94812 18.6556 2.73515 19.1669L2.01172 24.954V27.2029C2.01172 28.0392 2.12321 28.8718 2.34315 29.6787L2.93615 32.3898H9.18955L8.59655 29.5402C8.37661 28.6923 8.26512 27.817 8.26512 26.9379Z" fill="#FC2D39"/>
<path d="M88.5417 31.8538C69.8081 31.8538 9.35402 31.8538 2.93607 31.8538C2.05452 31.8538 1.33984 32.5684 1.33984 33.45V34.8992C1.33984 35.7807 2.05452 36.4954 2.93607 36.4954H88.5417C89.4233 36.4954 90.1379 35.7807 90.1379 34.8992V33.45C90.1379 32.5684 89.4233 31.8538 88.5417 31.8538Z" fill="#DFEBFA"/>
<path d="M28.1996 34.8994V33.4502C28.1996 32.5687 28.9143 31.854 29.7959 31.854C16.3634 31.854 5.46244 31.854 2.93607 31.854C2.05452 31.854 1.33984 32.5687 1.33984 33.4502V34.8994C1.33984 35.781 2.05452 36.4956 2.93607 36.4956H29.7959C28.9143 36.4956 28.1996 35.781 28.1996 34.8994Z" fill="#B1DBFC"/>
<path d="M82.4127 19.1672C82.2746 19.4676 82.1953 19.7999 82.1953 20.1504V24.1087C82.1953 25.4128 83.2623 26.4798 84.5664 26.4798H88.4709C88.3885 22.9391 85.8859 19.9091 82.4127 19.1672Z" fill="#FFD301"/>
<path d="M4.69872 19.1672H2.73515C2.25989 20.3086 2.01172 21.5376 2.01172 22.7849V24.9545H4.69872C5.96548 24.9545 7.00175 23.918 7.00175 22.6515V21.4706C7.00193 20.2037 5.96548 19.1672 4.69872 19.1672Z" fill="#FFD301"/>
<path d="M61.1576 17.9372V16.8116L53.1409 9.90803C51.8881 8.82905 50.3809 8.06399 48.7821 7.6954C42.7138 6.29643 30.5724 4.61301 17.4374 9.05811C15.2364 9.80298 13.3363 11.284 12.0879 13.2275C11.8885 13.5379 11.9519 13.949 12.2301 14.1913L17.7308 18.983C17.8671 19.1018 18.042 19.1672 18.2228 19.1672H61.5187C61.2914 18.8106 61.1576 18.3891 61.1576 17.9372Z" fill="#23A8FE"/>
<path d="M16.7461 13.1485C16.4681 12.8555 16.4046 12.358 16.6039 11.9828C17.3582 10.5622 18.3518 9.34802 19.5049 8.40894C18.8186 8.61012 18.1299 8.8238 17.4373 9.05821C15.2363 9.80308 13.3362 11.2841 12.0878 13.2276C11.8886 13.538 11.9519 13.9491 12.23 14.1914L17.7307 18.9831C17.867 19.1019 18.0418 19.1673 18.2228 19.1673H22.7388C22.558 19.1673 22.3831 19.0881 22.2467 18.9443L16.7461 13.1485Z" fill="#0193FA"/>
<path d="M65.4736 13.4419H63.4604C62.092 13.4419 60.9785 14.5552 60.9785 15.9238V17.937C60.9785 19.3054 62.0918 20.4189 63.4604 20.4189H65.4736C66.8421 20.4189 67.9555 19.3056 67.9555 17.937V15.9238C67.9553 14.5554 66.8421 13.4419 65.4736 13.4419Z" fill="#DFEBFA"/>
<path d="M64.467 17.9371V15.9238C64.467 14.8122 65.2019 13.8688 66.2112 13.554C65.978 13.4813 65.7304 13.4421 65.4736 13.4421H63.4604C62.092 13.4421 60.9785 14.5554 60.9785 15.924V17.9373C60.9785 19.3057 62.0918 20.4191 63.4604 20.4191H65.4736C65.7304 20.4191 65.978 20.38 66.2112 20.3073C65.2017 19.9921 64.467 19.0488 64.467 17.9371Z" fill="#B1DBFC"/>
<path d="M23.0732 7.49461L25.0529 19.1672H41.2606V6.47673C36.2124 5.98164 29.8912 5.99486 23.0732 7.49461Z" fill="#60B8FE"/>
<path d="M15.2396 43.2848C20.3014 43.2848 24.4049 39.1813 24.4049 34.1194C24.4049 29.0576 20.3014 24.9541 15.2396 24.9541C10.1777 24.9541 6.07422 29.0576 6.07422 34.1194C6.07422 39.1813 10.1777 43.2848 15.2396 43.2848Z" fill="#665E68"/>
<path d="M11.014 34.1194C11.014 29.9138 13.8479 26.3722 17.7095 25.2936C16.9233 25.074 16.0957 24.9541 15.2396 24.9541C10.1777 24.9541 6.07422 29.0576 6.07422 34.1194C6.07422 39.1813 10.1777 43.2848 15.2396 43.2848C16.0957 43.2848 16.9235 43.1649 17.7095 42.9453C13.8479 41.8667 11.014 38.3251 11.014 34.1194Z" fill="#554E56"/>
<path d="M15.2399 38.7022C17.7708 38.7022 19.8226 36.6505 19.8226 34.1195C19.8226 31.5886 17.7708 29.5369 15.2399 29.5369C12.709 29.5369 10.6572 31.5886 10.6572 34.1195C10.6572 36.6505 12.709 38.7022 15.2399 38.7022Z" fill="#DFEBFA"/>
<path d="M15.5972 34.1195C15.5972 32.4985 16.4397 31.075 17.7098 30.2605C16.9969 29.8033 16.1497 29.5369 15.2399 29.5369C12.7089 29.5369 10.6572 31.5885 10.6572 34.1195C10.6572 36.6506 12.7089 38.7022 15.2399 38.7022C16.1497 38.7022 16.9969 38.436 17.7098 37.9786C16.4397 37.1641 15.5972 35.7406 15.5972 34.1195Z" fill="#B1DBFC"/>
<path d="M72.5032 43.2848C77.5651 43.2848 81.6686 39.1813 81.6686 34.1194C81.6686 29.0576 77.5651 24.9541 72.5032 24.9541C67.4413 24.9541 63.3379 29.0576 63.3379 34.1194C63.3379 39.1813 67.4413 43.2848 72.5032 43.2848Z" fill="#665E68"/>
<path d="M68.2777 34.1194C68.2777 29.9138 71.1116 26.3722 74.9731 25.2936C74.187 25.074 73.3594 24.9541 72.5032 24.9541C67.4414 24.9541 63.3379 29.0576 63.3379 34.1194C63.3379 39.1813 67.4414 43.2848 72.5032 43.2848C73.3594 43.2848 74.1872 43.1649 74.9731 42.9453C71.1114 41.8667 68.2777 38.3251 68.2777 34.1194Z" fill="#554E56"/>
<path d="M72.5026 38.7022C75.0335 38.7022 77.0853 36.6505 77.0853 34.1195C77.0853 31.5886 75.0335 29.5369 72.5026 29.5369C69.9717 29.5369 67.9199 31.5886 67.9199 34.1195C67.9199 36.6505 69.9717 38.7022 72.5026 38.7022Z" fill="#DFEBFA"/>
<path d="M72.8599 34.1195C72.8599 32.4985 73.7024 31.075 74.9725 30.2605C74.2596 29.8033 73.4124 29.5369 72.5026 29.5369C69.9716 29.5369 67.9199 31.5885 67.9199 34.1195C67.9199 36.6506 69.9716 38.7022 72.5026 38.7022C73.4124 38.7022 74.2596 38.436 74.9725 37.9786C73.7024 37.1641 72.8599 35.7406 72.8599 34.1195Z" fill="#B1DBFC"/>
<path d="M72.359 28.1479C69.0933 28.1479 66.4365 30.8049 66.4365 34.0706C66.4365 37.3363 69.0933 39.9933 72.359 39.9933C75.6247 39.9933 78.2817 37.3363 78.2817 34.0706C78.2819 30.8049 75.6249 28.1479 72.359 28.1479ZM72.359 37.3133C70.5711 37.3133 69.1166 35.8586 69.1166 34.0706C69.1166 32.2825 70.5713 30.828 72.359 30.828C74.1471 30.828 75.6017 32.2827 75.6017 34.0706C75.6019 35.8587 74.1471 37.3133 72.359 37.3133Z" fill="#050402"/>
<path d="M15.2401 28.1479C11.9744 28.1479 9.31738 30.8049 9.31738 34.0706C9.31738 37.3363 11.9744 39.9933 15.2401 39.9933C18.5058 39.9933 21.1628 37.3363 21.1628 34.0706C21.1628 30.8049 18.5058 28.1479 15.2401 28.1479ZM15.2401 37.3133C13.452 37.3133 11.9974 35.8586 11.9974 34.0706C11.9974 32.2825 13.4521 30.828 15.2401 30.828C17.028 30.828 18.4827 32.2827 18.4827 34.0706C18.4827 35.8587 17.0282 37.3133 15.2401 37.3133Z" fill="#050402"/>
<path d="M0 33.4011V34.8503C0 36.4694 1.31714 37.7865 2.93642 37.7865H5.41527C6.91966 41.7501 10.755 44.5759 15.2395 44.5759C19.7241 44.5759 23.5596 41.7503 25.0638 37.7865H38.1339C38.8742 37.7865 39.474 37.1865 39.474 36.4465C39.474 35.7065 38.8742 35.1065 38.1339 35.1065H25.6936C25.7592 34.4424 25.7603 33.7834 25.7042 33.1447H61.8947C61.8393 33.7738 61.839 34.4418 61.9054 35.1065H44.3875C43.6473 35.1065 43.0475 35.7065 43.0475 36.4465C43.0475 37.1865 43.6473 37.7865 44.3875 37.7865H62.5351C64.0395 41.7501 67.8748 44.5759 72.3593 44.5759C76.8441 44.5759 80.6794 41.7503 82.1838 37.7865H88.5419C90.161 37.7865 91.4781 36.4694 91.4781 34.8503V33.4011C91.4781 32.2385 90.7972 31.2346 89.8147 30.7591V26.6111C89.8147 22.3699 86.8544 18.6545 82.611 17.7894L69.3163 15.0772C69.2117 15.0559 69.1083 15.0279 69.0054 14.9972C68.6109 13.4117 67.1794 12.2319 65.4736 12.2319H65.3027L61.1986 8.69766C60.6376 8.21472 59.7916 8.27779 59.3089 8.83863C58.8259 9.39947 58.8888 10.2455 59.4496 10.7284L61.7141 12.6784C61.0773 13.0277 60.5535 13.573 60.2288 14.1948L54.0153 8.84381C52.5984 7.6235 50.8928 6.75803 49.0829 6.34084C38.8567 3.98295 27.3865 4.22755 17.0076 7.74017C14.5199 8.58224 12.3723 10.2564 10.9601 12.4547C10.406 13.3173 10.5738 14.4772 11.3496 15.153L16.8499 19.9441C17.2301 20.2757 17.7175 20.4583 18.2226 20.4583H60.8813C61.561 21.1405 62.4806 21.5316 63.4608 21.5316H65.4742C67.4776 21.5316 69.1174 19.9025 69.1174 17.8884V17.7721L80.8557 20.1668V24.0601C80.8557 26.1064 82.5206 27.7712 84.5669 27.7712H87.1352V30.4652H82.2301C80.7214 26.3201 76.7703 23.5656 72.3599 23.5656C67.9677 23.5656 64.0044 26.304 62.4899 30.4652H25.1095C23.5928 26.2976 19.6244 23.5656 15.2395 23.5656C10.8538 23.5656 6.88589 26.2985 5.36953 30.4652H3.95983L3.63591 29.2778C3.44723 28.586 3.35164 27.8717 3.35164 27.1547V26.2458H4.69863C6.7074 26.2458 8.34168 24.6115 8.34168 22.6025V21.4217C8.34168 19.5162 6.8707 17.9506 5.00504 17.794L9.18321 11.3012C10.8539 8.70498 13.3916 6.72766 16.3283 5.73373C30.2713 1.01473 43.1327 2.79534 49.5584 4.27668C51.4469 4.71228 53.1911 5.53058 54.7421 6.7089C55.3315 7.15682 56.1721 7.04176 56.6197 6.45269C57.0675 5.86344 56.9528 5.0228 56.3633 4.57506C54.5084 3.16554 52.4214 2.18662 50.1603 1.66526C43.4581 0.11996 30.0392 -1.73605 15.4691 3.1952C11.9597 4.38281 8.92718 6.74642 6.92948 9.85079L2.38165 16.9182C1.27033 18.6454 0.671615 20.6717 0.671615 22.736V24.9056V27.1545C0.671615 28.1096 0.799006 29.0612 1.05021 29.9828L1.31554 30.9553C0.523678 31.4813 0 32.3809 0 33.4011H0ZM52.2661 10.8744L59.8172 17.377V17.7781H42.6008V7.92349C44.9151 8.20846 46.9082 8.58956 48.4808 8.95208C49.8687 9.2719 51.1775 9.93673 52.2661 10.8744ZM13.5063 13.4772C15.5108 10.728 18.2053 10.0148 21.9907 9.07537L23.4667 17.7781H18.4436L13.5063 13.4772ZM26.185 17.7781L24.6105 8.49505C32.6268 6.93098 38.7429 7.64119 39.9206 7.65477V17.7781H26.185ZM65.4736 18.8514H63.4602C62.8944 18.8514 62.497 18.3717 62.497 17.8882C62.497 17.1446 62.497 16.6171 62.497 15.875C62.497 15.344 62.929 14.9118 63.4602 14.9118H65.4736C66.0048 14.9118 66.4368 15.3438 66.4368 15.875V17.8882C66.4368 18.4192 66.0048 18.8514 65.4736 18.8514ZM72.3593 41.8959C68.0106 41.8959 64.534 38.3486 64.534 34.0706C64.534 29.8109 67.9984 26.2452 72.3593 26.2452C76.7273 26.2452 80.1848 29.8166 80.1848 34.0706C80.1848 38.3511 76.7031 41.8959 72.3593 41.8959ZM83.5352 24.0598V20.9075C85.2322 21.7219 86.4902 23.2645 86.9466 25.0909H84.5665C83.9978 25.0909 83.5352 24.6283 83.5352 24.0598ZM88.4747 33.1449H88.5419C88.683 33.1449 88.7981 33.2599 88.7981 33.4013V34.8505C88.7981 34.9918 88.683 35.1067 88.5419 35.1067H82.8134C82.8815 34.4254 82.8783 33.7613 82.8241 33.1449H88.4747ZM15.2395 41.8959C10.8907 41.8959 7.41421 38.3486 7.41421 34.0706C7.41421 29.7613 10.9249 26.2452 15.2395 26.2452C19.5433 26.2452 23.0649 29.7502 23.0649 34.0706C23.0649 38.3616 19.5747 41.8959 15.2395 41.8959ZM4.77492 33.1449C4.71846 33.7874 4.72096 34.4597 4.78564 35.1067H2.93642C2.79509 35.1067 2.68003 34.9916 2.68003 34.8505V33.4011C2.68003 33.2598 2.79509 33.1447 2.93642 33.1447H4.77492V33.1449ZM5.66165 21.4212V22.602C5.66165 23.133 5.22963 23.5652 4.69863 23.5652H3.35182C3.37594 23.074 3.24248 21.9393 3.6795 20.4582H4.6988C5.22981 20.4582 5.66165 20.8902 5.66165 21.4212Z" fill="#050402"/>
<path d="M46.9226 25.5318C47.6629 25.5318 48.2627 24.9319 48.2627 24.1918C48.2627 23.4518 47.6629 22.8518 46.9226 22.8518H45.2433C44.5031 22.8518 43.9033 23.4518 43.9033 24.1918C43.9033 24.9319 44.5031 25.5318 45.2433 25.5318H46.9226Z" fill="#050402"/>
<path d="M30.1287 25.5318C30.8689 25.5318 31.4687 24.9319 31.4687 24.1918C31.4687 23.4518 30.8689 22.8518 30.1287 22.8518H28.4494C27.7092 22.8518 27.1094 23.4518 27.1094 24.1918C27.1094 24.9319 27.7092 25.5318 28.4494 25.5318H30.1287Z" fill="#050402"/>
</svg>
